<?xml version="1.0" encoding="UTF-8" standalone="no"?>
<svg width="60px" height="60px" viewBox="0 0 60 60" version="1.1" xmlns="http://www.w3.org/2000/svg" xmlns:xlink="http://www.w3.org/1999/xlink">
    <!-- Generator: Sketch 48.2 (47327) - http://www.bohemiancoding.com/sketch -->
    <title>Shape</title>
    <desc>Created with Sketch.</desc>
    <defs></defs>
    <g id="实时分析-1105" stroke="none" stroke-width="1" fill="none" fill-rule="evenodd" transform="translate(-1298.000000, -195.000000)">
        <g id="Group-3-Copy-7" transform="translate(1204.000000, 96.000000)" fill="#60EDFE" fill-rule="nonzero">
            <path d="M123.9648,99 C107.416533,99 94,112.416533 94,128.9648 C94,145.513067 107.416533,158.9296 123.9648,158.9296 C140.513067,158.9296 153.9296,145.513067 153.9296,128.9648 C153.9296,112.416533 140.513067,99 123.9648,99 Z M127.649067,135.4864 L119.7152,143.450133 C118.482133,144.7792 116.984533,145.3104 115.307733,145.3104 C113.633067,145.3104 112.135467,144.777067 110.9024,143.539733 C108.346667,140.973333 108.346667,136.994667 110.9024,134.426133 L116.103467,129.382933 C116.6304,128.851733 117.424,128.851733 117.953067,129.382933 C118.482133,129.914133 118.482133,130.712 117.953067,131.2432 L112.752,136.284267 C111.252267,137.788267 111.1648,140.2672 112.6624,141.6816 C114.162133,143.098133 116.628267,143.098133 118.128,141.6816 L125.889067,133.72 C127.297067,132.3056 126.945067,129.56 125.889067,128.4976 C125.635816,128.255325 125.492582,127.920075 125.492582,127.5696 C125.492582,127.219125 125.635816,126.883875 125.889067,126.6416 C126.129598,126.387574 126.464031,126.243672 126.813867,126.243672 C127.163702,126.243672 127.498135,126.387574 127.738667,126.6416 C128.971733,127.881067 129.413333,129.295467 129.413333,131.064 C129.413333,132.832533 128.884267,134.249067 127.649067,135.4864 Z M137.707733,124.7152 L132.4192,129.946133 C131.892267,130.477333 131.186133,130.477333 130.657067,129.946133 C130.130133,129.414933 130.130133,128.706667 130.657067,128.173333 L135.9456,122.850667 C136.664796,122.152444 137.070647,121.192776 137.070647,120.1904 C137.070647,119.188024 136.664796,118.228356 135.9456,117.530133 C135.2416,116.819733 134.270933,116.4656 133.214933,116.4656 C132.1568,116.4656 131.3632,116.819733 130.657067,117.530133 L122.7232,125.513067 C122.006184,126.21247 121.601855,127.171696 121.601855,128.173333 C121.601855,129.17497 122.006184,130.134197 122.7232,130.8336 C123.252267,131.366933 123.252267,132.0752 122.7232,132.608533 C122.546133,132.7856 122.285867,133.050133 121.931733,133.050133 C121.573546,133.068577 121.223225,132.940768 120.961067,132.696 C119.728,131.4544 119.198933,129.946133 119.198933,128.173333 C119.198933,126.400533 119.728,124.979733 120.961067,123.738133 L128.894933,115.7552 C130.130133,114.515733 131.540267,113.984533 133.3024,113.984533 C135.064533,113.984533 136.474667,114.515733 137.707733,115.757333 C140.267733,118.328 140.267733,122.232 137.707733,124.7152 Z" id="Shape"></path>
        </g>
    </g>
</svg>